<svg height="569pt" viewBox="0 -47 569.285 569" width="569pt" xmlns="http://www.w3.org/2000/svg"><path d="m540.550781 57.019531h-9.484375v-9.484375c0-5.238281-4.246094-9.484375-9.484375-9.484375h-227.597656v-18.964843h227.597656c12.972657-.003907 24.300781 8.769531 27.550781 21.328124l18.378907-4.742187c-5.410157-20.9375-24.304688-35.5625-45.929688-35.554687h-474.164062c-26.175781.03125-47.386719 21.242187-47.417969 47.417968v237.082032h18.964844v-237.082032c0-15.710937 12.738281-28.449218 28.453125-28.449218h227.597656v18.964843h-227.597656c-5.238281 0-9.484375 4.246094-9.484375 9.484375v256.050782h-9.484375c-15.710938 0-28.449219 12.738281-28.449219 28.449218v56.898438c0 15.714844 12.738281 28.453125 28.449219 28.453125h9.484375v9.480469c0 5.238281 4.246094 9.484374 9.484375 9.484374h227.597656v18.964844h-227.597656c-15.714844 0-28.453125-12.734375-28.453125-28.449218h-18.964844c.03125 26.175781 21.242188 47.386718 47.417969 47.417968h474.164062c26.175781-.03125 47.386719-21.242187 47.417969-47.417968v-47.414063h-18.964844v47.414063c0 15.714843-12.738281 28.449218-28.453125 28.449218h-227.597656v-18.964844h227.597656c5.238281 0 9.484375-4.246093 9.484375-9.484374v-66.382813h9.484375c15.710938 0 28.449219-12.738281 28.449219-28.449219v-56.902344c-.027344-7.019531-2.664062-13.78125-7.398438-18.964843 4.734376-5.183594 7.371094-11.945313 7.398438-18.964844v-56.902344c-.027344-7.019531-2.664062-13.78125-7.398438-18.964843 4.734376-5.1875 7.371094-11.945313 7.398438-18.96875v-56.898438c0-15.714844-12.738281-28.449219-28.449219-28.449219zm0 18.964844c5.238281 0 9.484375 4.246094 9.484375 9.484375v56.898438c0 5.238281-4.246094 9.484374-9.484375 9.484374h-9.484375v-75.867187zm9.484375 104.316406v56.902344c0 5.234375-4.246094 9.480469-9.484375 9.480469h-9.484375v-75.867188h9.484375c5.238281 0 9.484375 4.246094 9.484375 9.484375zm-521.585937 218.117188c-5.238281 0-9.484375-4.246094-9.484375-9.484375v-56.898438c0-5.238281 4.246094-9.484375 9.484375-9.484375h9.484375v75.867188zm28.453125 9.484375v-350.882813h218.113281v28.449219h-18.964844v18.964844h18.964844v37.933594h-18.964844v18.964843h18.964844v37.933594h-18.964844v18.96875h18.964844v37.929687h-18.964844v18.96875h18.964844v37.933594h-18.964844v18.964844h18.964844v37.933594h-18.964844v18.964844h18.964844v28.453124h-218.113281zm237.082031-18.96875h18.964844v-18.964844h-18.964844v-37.933594h18.964844v-18.964844h-18.964844v-37.933593h18.964844v-18.964844h-18.964844v-37.933594h18.964844v-18.96875h-18.964844v-37.933593h18.964844v-18.964844h-18.964844v-37.9375h18.964844v-18.964844h-18.964844v-28.449219h218.113281v284.5h-66.382812c-5.234375 0-9.480469 4.246094-9.480469 9.484375v66.382813h-142.25zm204.707031-28.449219-43.492187 43.492187v-43.492187zm-30.082031 56.902344 43.488281-43.492188v43.492188zm81.425781-85.351563c0 5.238282-4.246094 9.484375-9.484375 9.484375h-9.484375v-75.867187h9.484375c5.238281 0 9.484375 4.246094 9.484375 9.480468zm0 0"/><path d="m341.402344 132.886719h142.246094v18.964843h-142.246094zm0 0"/><path d="m341.402344 85.46875h142.246094v18.964844h-142.246094zm0 0"/><path d="m341.402344 180.300781h142.246094v18.964844h-142.246094zm0 0"/><path d="m341.402344 227.71875h142.246094v18.964844h-142.246094zm0 0"/><path d="m341.402344 275.132812h142.246094v18.96875h-142.246094zm0 0"/><path d="m341.402344 322.550781h66.382812v18.96875h-66.382812zm0 0"/><path d="m341.402344 369.96875h66.382812v18.964844h-66.382812zm0 0"/><path d="m85.351562 132.886719h142.246094v18.964843h-142.246094zm0 0"/><path d="m85.351562 85.46875h142.246094v18.964844h-142.246094zm0 0"/><path d="m85.351562 180.300781h142.246094v18.964844h-142.246094zm0 0"/><path d="m85.351562 227.71875h142.246094v18.964844h-142.246094zm0 0"/><path d="m85.351562 275.132812h142.246094v18.96875h-142.246094zm0 0"/><path d="m85.351562 322.550781h142.246094v18.96875h-142.246094zm0 0"/><path d="m85.351562 369.96875h142.246094v18.964844h-142.246094zm0 0"/></svg>